<?xml version="1.0" standalone="no"?>
<!DOCTYPE svg PUBLIC "-//W3C//DTD SVG 20010904//EN"
 "http://www.w3.org/TR/2001/REC-SVG-20010904/DTD/svg10.dtd">
<svg version="1.0" xmlns="http://www.w3.org/2000/svg"
 width="600.000000pt" height="90.000000pt" viewBox="0 0 600.000000 90.000000"
 preserveAspectRatio="xMidYMid meet">

<g transform="translate(0.000000,90.000000) scale(0.100000,-0.100000)"
fill="#000000" stroke="none">
<path d="M1400 588 c-11 -12 -20 -25 -20 -30 0 -16 40 -7 50 11 23 43 4 55
-30 19z"/>
<path d="M1906 601 c-10 -16 6 -42 23 -39 9 2 17 13 19 26 3 16 -2 22 -17 22
-11 0 -22 -4 -25 -9z"/>
<path d="M2537 596 c-9 -22 19 -42 37 -26 19 15 10 40 -14 40 -10 0 -20 -6
-23 -14z"/>
<path d="M3237 596 c-9 -22 19 -42 37 -26 19 15 10 40 -14 40 -10 0 -20 -6
-23 -14z"/>
<path d="M3470 466 c0 -139 1 -146 20 -146 18 0 20 7 20 73 0 77 9 97 45 97
36 0 45 -20 45 -97 0 -66 2 -73 20 -73 18 0 20 7 20 85 0 72 -3 88 -20 105
-24 24 -57 26 -87 5 -22 -15 -22 -15 -25 37 -2 41 -7 54 -20 56 -17 3 -18 -9
-18 -142z"/>
<path d="M4500 466 c0 -140 1 -146 20 -146 20 0 20 5 18 142 -3 127 -5 143
-20 146 -17 3 -18 -9 -18 -142z"/>
<path d="M1714 586 c-34 -15 -44 -33 -44 -75 0 -35 23 -56 80 -71 54 -14 70
-26 70 -51 0 -39 -62 -51 -103 -19 -14 11 -32 20 -41 20 -44 0 15 -65 67 -75
52 -10 109 20 121 62 14 50 -11 78 -86 101 -43 12 -64 24 -66 36 -9 44 61 63
98 26 23 -23 50 -26 50 -7 0 23 -45 58 -81 62 -19 3 -48 -1 -65 -9z"/>
<path d="M3822 469 c-24 -67 -46 -128 -49 -136 -4 -11 0 -14 18 -11 17 2 26
12 33 36 9 33 10 33 65 30 53 -3 56 -4 65 -35 7 -25 14 -33 32 -33 l23 0 -38
108 c-61 167 -58 162 -83 162 -21 0 -28 -14 -66 -121z m91 9 l16 -48 -41 0
c-30 0 -39 3 -35 14 3 8 11 33 18 55 14 48 20 45 42 -21z"/>
<path d="M3347 573 c-4 -3 -7 -17 -7 -30 0 -14 -6 -23 -15 -23 -8 0 -15 -7
-15 -15 0 -8 7 -15 15 -15 12 0 15 -14 15 -63 0 -76 18 -107 61 -107 19 0 29
5 29 15 0 8 -7 15 -15 15 -22 0 -35 33 -35 89 0 48 2 51 25 51 32 0 34 27 3
32 -17 2 -24 11 -26 31 -3 25 -20 35 -35 20z"/>
<path d="M1291 516 c-10 -12 -22 -31 -25 -43 -9 -29 9 -94 34 -126 18 -23 26
-25 92 -23 70 1 72 2 91 33 18 32 18 32 -5 63 -22 30 -22 32 -5 62 26 46 11
55 -83 55 -68 -1 -83 -4 -99 -21z"/>
<path d="M1910 426 c0 -100 1 -106 20 -106 20 0 21 5 18 102 -3 89 -5 103 -20
106 -16 3 -18 -7 -18 -102z"/>
<path d="M2034 518 c-28 -13 -44 -49 -44 -99 0 -31 7 -47 29 -70 33 -32 57
-36 87 -14 10 8 22 15 27 15 12 0 8 -45 -5 -58 -15 -15 -74 -16 -83 -2 -10 16
-45 12 -45 -5 0 -9 15 -23 34 -31 45 -22 98 -12 126 23 18 24 20 38 18 137 -3
96 -5 111 -20 114 -11 2 -18 -3 -18 -12 0 -13 -3 -13 -27 0 -32 16 -50 17 -79
2z m90 -50 c44 -63 -26 -145 -78 -92 -9 8 -16 31 -16 49 0 61 62 89 94 43z"/>
<path d="M2230 425 c0 -98 1 -105 20 -105 18 0 20 7 20 73 0 77 9 97 45 97 36
0 45 -20 45 -97 0 -66 2 -73 20 -73 18 0 20 7 20 85 0 72 -3 88 -20 105 -24
24 -72 26 -91 4 -11 -14 -13 -14 -21 0 -5 9 -16 16 -23 16 -12 0 -15 -20 -15
-105z"/>
<path d="M2540 425 c0 -98 1 -105 20 -105 19 0 20 7 20 105 0 98 -1 105 -20
105 -19 0 -20 -7 -20 -105z"/>
<path d="M2630 425 c0 -98 1 -105 20 -105 18 0 20 7 20 74 0 82 11 100 57 94
28 -3 28 -3 31 -85 3 -75 5 -83 22 -83 18 0 20 7 20 85 0 72 -3 88 -20 105
-24 24 -57 26 -87 5 -19 -13 -22 -13 -27 0 -3 8 -12 15 -21 15 -12 0 -15 -17
-15 -105z"/>
<path d="M2930 518 c0 -11 27 -117 46 -181 4 -12 13 -17 27 -15 18 2 25 16 41
77 22 81 23 81 52 -22 13 -49 19 -58 37 -55 17 2 25 20 48 101 23 84 25 99 12
104 -20 8 -29 -10 -44 -84 -7 -35 -15 -63 -18 -63 -3 0 -15 33 -26 73 -16 58
-24 72 -40 72 -16 0 -22 -14 -39 -80 -11 -44 -22 -73 -24 -65 -3 8 -13 44 -21
80 -11 46 -21 66 -33 68 -10 2 -18 -3 -18 -10z"/>
<path d="M3240 425 c0 -98 1 -105 20 -105 19 0 20 7 20 105 0 98 -1 105 -20
105 -19 0 -20 -7 -20 -105z"/>
<path d="M4040 390 c0 -133 1 -140 20 -140 17 0 20 7 20 52 0 49 1 50 18 35
19 -17 57 -22 87 -11 24 10 45 58 45 104 0 74 -73 123 -127 85 -19 -13 -22
-13 -27 0 -3 8 -12 15 -21 15 -13 0 -15 -21 -15 -140z m134 78 c31 -44 6 -118
-39 -118 -26 0 -55 38 -55 72 0 61 62 92 94 46z"/>
<path d="M4270 390 c0 -133 1 -140 20 -140 17 0 20 7 20 52 0 49 1 50 18 35
19 -17 57 -22 87 -11 24 10 45 58 45 104 0 74 -73 123 -127 85 -19 -13 -22
-13 -27 0 -3 8 -12 15 -21 15 -13 0 -15 -21 -15 -140z m134 78 c31 -44 6 -118
-39 -118 -26 0 -55 38 -55 72 0 61 62 92 94 46z"/>
<path d="M4615 508 c-44 -39 -46 -127 -5 -168 28 -28 103 -27 130 0 36 36 16
56 -24 25 -28 -22 -63 -18 -80 7 -9 12 -16 26 -16 30 0 4 33 8 73 10 78 3 76
1 62 65 -6 26 -52 53 -89 53 -14 0 -37 -10 -51 -22z m93 -30 c26 -26 13 -38
-38 -38 -54 0 -55 1 -40 31 12 22 59 26 78 7z"/>
</g>
</svg>
