<svg width="29" height="31" viewBox="0 0 29 31" fill="none" xmlns="http://www.w3.org/2000/svg">
<path fill-rule="evenodd" clip-rule="evenodd" d="M2.71875 3.00358C2.71875 2.59155 2.57553 2.19639 2.3206 1.90504C2.06567 1.61369 1.7199 1.45001 1.35938 1.45001C0.998846 1.45001 0.653084 1.61369 0.398152 1.90504C0.143219 2.19639 0 2.59155 0 3.00358L0 28.8964C0 29.754 0.609 30.45 1.35938 30.45H27.6406C28.0012 30.45 28.3469 30.2863 28.6018 29.995C28.8568 29.7036 29 29.3085 29 28.8964C29 28.4844 28.8568 28.0893 28.6018 27.7979C28.3469 27.5065 28.0012 27.3429 27.6406 27.3429H2.71875V3.00358ZM28.6013 8.2443C28.8414 7.94979 28.9721 7.56027 28.9659 7.15779C28.9597 6.75531 28.817 6.37129 28.5679 6.08665C28.3189 5.80201 27.9829 5.63897 27.6307 5.63186C27.2785 5.62476 26.9377 5.77416 26.68 6.04858L18.125 15.8257L13.6481 10.7093C13.3932 10.4184 13.0477 10.255 12.6875 10.255C12.3273 10.255 11.9818 10.4184 11.7269 10.7093L5.83625 17.4414C5.59613 17.7359 5.46541 18.1255 5.47162 18.528C5.47783 18.9304 5.6205 19.3144 5.86956 19.5991C6.11862 19.8837 6.45463 20.0468 6.8068 20.0539C7.15897 20.061 7.49981 19.9116 7.7575 19.6372L12.6875 14.0029L17.1644 19.1193C17.4193 19.4102 17.7648 19.5736 18.125 19.5736C18.4852 19.5736 18.8307 19.4102 19.0856 19.1193L28.6013 8.2443Z" fill="#717171"/>
</svg>
