<svg width="22" height="29" viewBox="0 0 22 29" fill="none" xmlns="http://www.w3.org/2000/svg">
<g clip-path="url(#clip0_113_935)">
<path d="M21.5761 24.2139C22.224 24.9831 22.1194 26.1255 21.3415 26.7661C21.0126 27.0379 20.5974 27.1867 20.1687 27.1865C19.6433 27.1865 19.122 26.9643 18.7599 26.534L11 17.2811L3.24272 26.4852C2.88018 26.9153 2.35928 27.1377 1.83391 27.1377C1.40523 27.1378 0.990122 26.989 0.661154 26.7173C-0.116867 26.0767 -0.22171 24.9342 0.426602 24.1651L8.61358 14.4512L0.425227 4.78614C-0.222914 4.01696 -0.118184 2.87452 0.660008 2.23391C1.43688 1.59161 2.59246 1.69492 3.24157 2.4658L11 11.668L18.7573 2.46388C19.4047 1.6947 20.5608 1.59048 21.3389 2.23199C22.1169 2.87259 22.2217 4.01504 21.5734 4.78422L13.3864 14.4981L21.5761 24.2139Z" fill="#717171"/>
</g>
<defs>
<clipPath id="clip0_113_935">
<rect width="22" height="29" fill="white"/>
</clipPath>
</defs>
</svg>
